<svg data-v-d3f97b9e="" xmlns="http://www.w3.org/2000/svg" viewBox="0 0 650 90"><!----><!----><!----><g data-v-d3f97b9e="" id="355e68ab-8f4f-4919-90fe-4d5553ed6435" fill="#000000" transform="matrix(5.836575984954834,0,0,5.836575984954834,102.7865219116211,-6.24513578414917)"><path d="M4.91 13.75L3.71 13.75L3.71 5.11L0.90 5.11L0.90 3.95L7.73 3.95L7.73 5.11L4.91 5.11L4.91 13.75ZM13.10 5.28L13.10 5.28L13.10 5.28Q12.80 5.28 12.58 5.06L12.58 5.06L12.58 5.06Q12.36 4.84 12.36 4.54L12.36 4.54L12.36 4.54Q12.36 4.21 12.58 3.99L12.58 3.99L12.58 3.99Q12.80 3.77 13.10 3.77L13.10 3.77L13.10 3.77Q13.43 3.77 13.64 3.99L13.64 3.99L13.64 3.99Q13.86 4.21 13.86 4.54L13.86 4.54L13.86 4.54Q13.86 4.86 13.64 5.07L13.64 5.07L13.64 5.07Q13.43 5.28 13.10 5.28ZM13.71 6.59L13.71 12.68L15.68 12.68L15.68 13.75L10.54 13.75L10.54 12.68L12.52 12.68L12.52 7.66L10.54 7.66L10.54 6.59L13.71 6.59ZM21.71 13.92L21.71 13.92L21.71 13.92Q20.31 13.92 19.50 12.93L19.50 12.93L19.50 12.93Q18.69 11.94 18.69 10.18L18.69 10.18L18.69 10.18Q18.69 8.41 19.52 7.42L19.52 7.42L19.52 7.42Q20.34 6.43 21.80 6.43L21.80 6.43L21.80 6.43Q23.74 6.43 24.37 8.08L24.37 8.08L23.27 8.48L23.27 8.48Q22.85 7.52 21.78 7.52L21.78 7.52L21.78 7.52Q20.83 7.52 20.37 8.22L20.37 8.22L20.37 8.22Q19.91 8.92 19.91 10.18L19.91 10.18L19.91 10.18Q19.91 11.44 20.37 12.12L20.37 12.12L20.37 12.12Q20.83 12.81 21.76 12.81L21.76 12.81L21.76 12.81Q22.97 12.81 23.35 11.73L23.35 11.73L24.44 12.12L24.44 12.12Q24.16 12.98 23.45 13.45L23.45 13.45L23.45 13.45Q22.74 13.92 21.71 13.92ZM33.47 10.16L26.89 10.16L26.89 9.00L33.47 9.00L33.47 10.16ZM39.45 13.92L39.45 13.92L39.45 13.92Q37.63 13.92 37.63 12.12L37.63 12.12L37.63 7.66L35.99 7.66L35.99 6.59L37.63 6.59L37.63 4.23L38.82 3.64L38.82 6.59L41.23 6.59L41.23 7.66L38.82 7.66L38.82 11.75L38.82 11.75Q38.82 12.28 39.04 12.55L39.04 12.55L39.04 12.55Q39.26 12.82 39.86 12.82L39.86 12.82L39.86 12.82Q40.52 12.82 41.17 12.43L41.17 12.43L41.03 13.59L41.03 13.59Q40.42 13.92 39.45 13.92ZM46.96 13.92L46.96 13.92L46.96 13.92Q45.79 13.92 45.09 13.29L45.09 13.29L45.09 13.29Q44.39 12.67 44.39 11.51L44.39 11.51L44.39 11.51Q44.39 10.35 45.19 9.74L45.19 9.74L45.19 9.74Q45.98 9.14 47.14 9.14L47.14 9.14L47.14 9.14Q48.20 9.14 49.07 9.60L49.07 9.60L49.07 9.06L49.07 9.06Q49.07 7.46 47.56 7.46L47.56 7.46L47.56 7.46Q46.45 7.46 45.29 8.22L45.29 8.22L44.94 7.22L44.94 7.22Q46.23 6.43 47.67 6.43L47.67 6.43L47.67 6.43Q48.13 6.43 48.54 6.53L48.54 6.53L48.54 6.53Q48.94 6.64 49.34 6.90L49.34 6.90L49.34 6.90Q49.74 7.15 49.97 7.69L49.97 7.69L49.97 7.69Q50.20 8.22 50.20 8.97L50.20 8.97L50.20 13.75L49.07 13.75L49.07 13.09L49.07 13.09Q48.17 13.92 46.96 13.92ZM47.11 12.88L47.11 12.88L47.11 12.88Q48.23 12.88 49.07 11.90L49.07 11.90L49.07 10.67L49.07 10.67Q48.24 10.16 47.28 10.16L47.28 10.16L47.28 10.16Q46.52 10.16 46.02 10.51L46.02 10.51L46.02 10.51Q45.51 10.85 45.51 11.51L45.51 11.51L45.51 11.51Q45.51 12.12 45.93 12.50L45.93 12.50L45.93 12.50Q46.35 12.88 47.11 12.88ZM56.21 13.92L56.21 13.92L56.21 13.92Q54.81 13.92 54.00 12.93L54.00 12.93L54.00 12.93Q53.19 11.94 53.19 10.18L53.19 10.18L53.19 10.18Q53.19 8.41 54.01 7.42L54.01 7.42L54.01 7.42Q54.84 6.43 56.29 6.43L56.29 6.43L56.29 6.43Q58.24 6.43 58.87 8.08L58.87 8.08L57.76 8.48L57.76 8.48Q57.34 7.52 56.28 7.52L56.28 7.52L56.28 7.52Q55.33 7.52 54.87 8.22L54.87 8.22L54.87 8.22Q54.40 8.92 54.40 10.18L54.40 10.18L54.40 10.18Q54.40 11.44 54.87 12.12L54.87 12.12L54.87 12.12Q55.33 12.81 56.25 12.81L56.25 12.81L56.25 12.81Q57.47 12.81 57.85 11.73L57.85 11.73L58.94 12.12L58.94 12.12Q58.66 12.98 57.95 13.45L57.95 13.45L57.95 13.45Q57.23 13.92 56.21 13.92ZM67.97 10.16L61.39 10.16L61.39 9.00L67.97 9.00L67.97 10.16ZM73.95 13.92L73.95 13.92L73.95 13.92Q72.13 13.92 72.13 12.12L72.13 12.12L72.13 7.66L70.49 7.66L70.49 6.59L72.13 6.59L72.13 4.23L73.32 3.64L73.32 6.59L75.73 6.59L75.73 7.66L73.32 7.66L73.32 11.75L73.32 11.75Q73.32 12.28 73.54 12.55L73.54 12.55L73.54 12.55Q73.75 12.82 74.35 12.82L74.35 12.82L74.35 12.82Q75.01 12.82 75.67 12.43L75.67 12.43L75.53 13.59L75.53 13.59Q74.91 13.92 73.95 13.92ZM84.36 12.91L84.36 12.91L84.36 12.91Q83.45 13.92 81.93 13.92L81.93 13.92L81.93 13.92Q80.40 13.92 79.49 12.92L79.49 12.92L79.49 12.92Q78.58 11.93 78.58 10.18L78.58 10.18L78.58 10.18Q78.58 8.44 79.49 7.43L79.49 7.43L79.49 7.43Q80.40 6.43 81.93 6.43L81.93 6.43L81.93 6.43Q83.47 6.43 84.37 7.42L84.37 7.42L84.37 7.42Q85.27 8.41 85.27 10.16L85.27 10.16L85.27 10.16Q85.27 11.90 84.36 12.91ZM81.93 12.81L81.93 12.81L81.93 12.81Q82.94 12.81 83.50 12.10L83.50 12.10L83.50 12.10Q84.06 11.40 84.06 10.16L84.06 10.16L84.06 10.16Q84.06 8.92 83.51 8.22L83.51 8.22L83.51 8.22Q82.96 7.52 81.93 7.52L81.93 7.52L81.93 7.52Q80.89 7.52 80.35 8.21L80.35 8.21L80.35 8.21Q79.80 8.90 79.80 10.18L79.80 10.18L79.80 10.18Q79.80 11.41 80.35 12.11L80.35 12.11L80.35 12.11Q80.91 12.81 81.93 12.81ZM93.69 9.86L93.69 9.86L93.69 9.86Q93.69 10.32 93.65 10.64L93.65 10.64L88.65 10.64L88.65 10.64Q88.79 11.68 89.33 12.26L89.33 12.26L89.33 12.26Q89.87 12.84 90.73 12.84L90.73 12.84L90.73 12.84Q91.64 12.84 92.40 12.22L92.40 12.22L93.07 13.01L93.07 13.01Q92.06 13.92 90.69 13.92L90.69 13.92L90.69 13.92Q89.19 13.92 88.30 12.85L88.30 12.85L88.30 12.85Q87.42 11.79 87.42 10.16L87.42 10.16L87.42 10.16Q87.42 8.41 88.30 7.42L88.30 7.42L88.30 7.42Q89.19 6.43 90.69 6.43L90.69 6.43L90.69 6.43Q92.01 6.43 92.85 7.29L92.85 7.29L92.85 7.29Q93.69 8.16 93.69 9.86ZM88.62 9.60L88.62 9.60L92.50 9.60L92.50 9.60Q92.47 8.47 91.94 7.98L91.94 7.98L91.94 7.98Q91.41 7.49 90.69 7.49L90.69 7.49L90.69 7.49Q89.74 7.49 89.21 8.05L89.21 8.05L89.21 8.05Q88.69 8.61 88.62 9.60Z"></path></g><linearGradient data-v-d3f97b9e="" gradientTransform="rotate(25)" id="1c1358bf-48d1-4000-b4c7-5da7e07a2765" x1="0%" y1="0%" x2="100%" y2="0%"><stop data-v-d3f97b9e="" offset="0%" style="stop-color: rgb(81, 164, 251); stop-opacity: 1;"></stop><stop data-v-d3f97b9e="" offset="100%" style="stop-color: rgb(81, 164, 251); stop-opacity: 1;"></stop></linearGradient><g data-v-d3f97b9e="" id="c6f68358-8eb8-4c8f-a284-25194f996c38" transform="matrix(1.3064385652542114,0,0,1.3064385652542114,-21.001054763793945,-19.828006744384766)" stroke="none" fill="url(#1c1358bf-48d1-4000-b4c7-5da7e07a2765)"><path d="M38.7 50.3c-.3-.7-.1-1.8.3-2.5l5.3-6.9c.5-.6 1.5-1.1 2.3-.9l8.7 1.2c.8.1 1.7.8 2 1.5l3.3 8.1c.3.7.1 1.8-.3 2.5L55 60.2c-.5.6-1.5 1.1-2.3.9L44 59.9c-.8-.1-1.7-.8-2-1.5l-3.3-8.1zM58.1 63.9c-.3-.7-.1-1.8.3-2.5l5.4-6.9c.5-.6 1.5-1.1 2.3-.9l8.7 1.2c.8.1 1.7.8 2 1.5l3.3 8.1c.3.7.1 1.8-.3 2.5l-5.3 6.9c-.5.6-1.5 1.1-2.3.9l-8.7-1.2c-.8-.1-1.7-.8-2-1.5l-3.4-8.1zM19.6 34.6c-.3-.7-.2-1.8.3-2.5l5.3-6.9c.5-.6 1.5-1.1 2.3-.9l8.7 1.2c.8.1 1.7.8 2 1.5l3.3 8.1c.3.7.1 1.8-.3 2.5L36 44.3c-.5.6-1.5 1.1-2.3 1L25 44.2c-.8-.1-1.7-.8-2-1.5l-3.4-8.1zM42.1 26.1c-.3-.7-.1-1.8.3-2.5l5.4-6.9c.5-.6 1.5-1.1 2.3-.9l8.7 1.2c.8.1 1.7.8 2 1.5l3.3 8.1c.3.7.1 1.8-.3 2.5L58.4 36c-.5.6-1.5 1.1-2.3.9l-8.7-1.2c-.8-.1-1.7-.8-2-1.5l-3.3-8.1zM61.6 40c-.3-.7-.1-1.8.3-2.5l5.3-6.9c.5-.6 1.5-1.1 2.3-.9l8.7 1.2c.8.1 1.7.8 2 1.5l3.3 8.1c.3.7.1 1.8-.3 2.5l-5.4 6.9c-.5.6-1.5 1.1-2.3.9l-8.7-1.2c-.8-.1-1.7-.8-2-1.5L61.6 40zM16.4 58.5c-.3-.7-.1-1.8.3-2.5l5.3-6.9c.5-.6 1.5-1.1 2.3-.9l8.7 1.2c.8.1 1.7.8 2 1.5l3.3 8.1c.3.7.1 1.8-.3 2.5l-5.3 6.9c-.5.6-1.5 1.1-2.3.9l-8.7-1.2c-.8-.1-1.7-.8-2-1.5l-3.3-8.1zM35.3 73.8c-.3-.7-.1-1.8.3-2.5l5.4-6.9c.5-.6 1.5-1.1 2.3-.9l8.7 1.2c.8.1 1.7.8 2 1.5l3.3 8.1c.3.7.1 1.8-.3 2.5l-5.4 6.9c-.5.6-1.5 1.1-2.3.9l-8.7-1.2c-.8-.1-1.7-.8-2-1.5l-3.3-8.1z"></path></g><!----></svg>