<svg data-v-d3f97b9e="" xmlns="http://www.w3.org/2000/svg" viewBox="0 0 58.692963449229445 60"><!----><!----><!----><!----><g data-v-d3f97b9e="" id="61f333aa-8710-4a38-9f84-4b2fcc8433b5" transform="matrix(0.8709589838981628,0,0,0.8709589838981628,-14.15792179107666,-13.72214126586914)" stroke="none" fill="white"><path d="M38.7 50.3c-.3-.7-.1-1.8.3-2.5l5.3-6.9c.5-.6 1.5-1.1 2.3-.9l8.7 1.2c.8.1 1.7.8 2 1.5l3.3 8.1c.3.7.1 1.8-.3 2.5L55 60.2c-.5.6-1.5 1.1-2.3.9L44 59.9c-.8-.1-1.7-.8-2-1.5l-3.3-8.1zM58.1 63.9c-.3-.7-.1-1.8.3-2.5l5.4-6.9c.5-.6 1.5-1.1 2.3-.9l8.7 1.2c.8.1 1.7.8 2 1.5l3.3 8.1c.3.7.1 1.8-.3 2.5l-5.3 6.9c-.5.6-1.5 1.1-2.3.9l-8.7-1.2c-.8-.1-1.7-.8-2-1.5l-3.4-8.1zM19.6 34.6c-.3-.7-.2-1.8.3-2.5l5.3-6.9c.5-.6 1.5-1.1 2.3-.9l8.7 1.2c.8.1 1.7.8 2 1.5l3.3 8.1c.3.7.1 1.8-.3 2.5L36 44.3c-.5.6-1.5 1.1-2.3 1L25 44.2c-.8-.1-1.7-.8-2-1.5l-3.4-8.1zM42.1 26.1c-.3-.7-.1-1.8.3-2.5l5.4-6.9c.5-.6 1.5-1.1 2.3-.9l8.7 1.2c.8.1 1.7.8 2 1.5l3.3 8.1c.3.7.1 1.8-.3 2.5L58.4 36c-.5.6-1.5 1.1-2.3.9l-8.7-1.2c-.8-.1-1.7-.8-2-1.5l-3.3-8.1zM61.6 40c-.3-.7-.1-1.8.3-2.5l5.3-6.9c.5-.6 1.5-1.1 2.3-.9l8.7 1.2c.8.1 1.7.8 2 1.5l3.3 8.1c.3.7.1 1.8-.3 2.5l-5.4 6.9c-.5.6-1.5 1.1-2.3.9l-8.7-1.2c-.8-.1-1.7-.8-2-1.5L61.6 40zM16.4 58.5c-.3-.7-.1-1.8.3-2.5l5.3-6.9c.5-.6 1.5-1.1 2.3-.9l8.7 1.2c.8.1 1.7.8 2 1.5l3.3 8.1c.3.7.1 1.8-.3 2.5l-5.3 6.9c-.5.6-1.5 1.1-2.3.9l-8.7-1.2c-.8-.1-1.7-.8-2-1.5l-3.3-8.1zM35.3 73.8c-.3-.7-.1-1.8.3-2.5l5.4-6.9c.5-.6 1.5-1.1 2.3-.9l8.7 1.2c.8.1 1.7.8 2 1.5l3.3 8.1c.3.7.1 1.8-.3 2.5l-5.4 6.9c-.5.6-1.5 1.1-2.3.9l-8.7-1.2c-.8-.1-1.7-.8-2-1.5l-3.3-8.1z"></path></g><!----></svg>