<svg data-v-29081953="" xmlns="http://www.w3.org/2000/svg" viewBox="0 0 300 300"><!----><defs data-v-29081953=""><!----></defs><rect data-v-29081953="" fill="transparent" x="0" y="0" width="300px" height="300px" class="logo-background-square"></rect><!----><defs data-v-29081953=""><linearGradient data-v-29081953="" gradientTransform="rotate(25)" id="f7227a6e-adcc-4473-a8bb-9edd600ac8d8" x1="0%" y1="0%" x2="100%" y2="0%"><stop data-v-29081953="" offset="0%" stop-color="#51A4FB" stop-opacity="1"></stop><stop data-v-29081953="" offset="100%" stop-color="#51A4FB" stop-opacity="1"></stop></linearGradient></defs><g data-v-29081953="" id="4a92e41c-75b6-42d2-8030-c067fa13be66" fill="url(#f7227a6e-adcc-4473-a8bb-9edd600ac8d8)" stroke="none" transform="matrix(3.193516254425049,0,0,3.193516254425049,-9.516150681738011,-10.31452368044944)"><path d="M38.7 50.3c-.3-.7-.1-1.8.3-2.5l5.3-6.9c.5-.6 1.5-1.1 2.3-.9l8.7 1.2c.8.1 1.7.8 2 1.5l3.3 8.1c.3.7.1 1.8-.3 2.5L55 60.2c-.5.6-1.5 1.1-2.3.9L44 59.9c-.8-.1-1.7-.8-2-1.5l-3.3-8.1zM58.1 63.9c-.3-.7-.1-1.8.3-2.5l5.4-6.9c.5-.6 1.5-1.1 2.3-.9l8.7 1.2c.8.1 1.7.8 2 1.5l3.3 8.1c.3.7.1 1.8-.3 2.5l-5.3 6.9c-.5.6-1.5 1.1-2.3.9l-8.7-1.2c-.8-.1-1.7-.8-2-1.5l-3.4-8.1zM19.6 34.6c-.3-.7-.2-1.8.3-2.5l5.3-6.9c.5-.6 1.5-1.1 2.3-.9l8.7 1.2c.8.1 1.7.8 2 1.5l3.3 8.1c.3.7.1 1.8-.3 2.5L36 44.3c-.5.6-1.5 1.1-2.3 1L25 44.2c-.8-.1-1.7-.8-2-1.5l-3.4-8.1zM42.1 26.1c-.3-.7-.1-1.8.3-2.5l5.4-6.9c.5-.6 1.5-1.1 2.3-.9l8.7 1.2c.8.1 1.7.8 2 1.5l3.3 8.1c.3.7.1 1.8-.3 2.5L58.4 36c-.5.6-1.5 1.1-2.3.9l-8.7-1.2c-.8-.1-1.7-.8-2-1.5l-3.3-8.1zM61.6 40c-.3-.7-.1-1.8.3-2.5l5.3-6.9c.5-.6 1.5-1.1 2.3-.9l8.7 1.2c.8.1 1.7.8 2 1.5l3.3 8.1c.3.7.1 1.8-.3 2.5l-5.4 6.9c-.5.6-1.5 1.1-2.3.9l-8.7-1.2c-.8-.1-1.7-.8-2-1.5L61.6 40zM16.4 58.5c-.3-.7-.1-1.8.3-2.5l5.3-6.9c.5-.6 1.5-1.1 2.3-.9l8.7 1.2c.8.1 1.7.8 2 1.5l3.3 8.1c.3.7.1 1.8-.3 2.5l-5.3 6.9c-.5.6-1.5 1.1-2.3.9l-8.7-1.2c-.8-.1-1.7-.8-2-1.5l-3.3-8.1zM35.3 73.8c-.3-.7-.1-1.8.3-2.5l5.4-6.9c.5-.6 1.5-1.1 2.3-.9l8.7 1.2c.8.1 1.7.8 2 1.5l3.3 8.1c.3.7.1 1.8-.3 2.5l-5.4 6.9c-.5.6-1.5 1.1-2.3.9l-8.7-1.2c-.8-.1-1.7-.8-2-1.5l-3.3-8.1z"></path></g><!----></svg>